{
	"asset":{
		"generator":"Khronos glTF Blender I/O v4.3.47",
		"version":"2.0"
	},
	"scene":0,
	"scenes":[
		{
			"name":"Scene",
			"nodes":[
				0,
				1,
				2
			]
		}
	],
	"nodes":[
		{
			"mesh":0,
			"name":"Soccer Goal",
			"rotation":[
				0,
				1,
				0,
				1.6292068494294654e-07
			],
			"scale":[
				2.6388418674468994,
				1.0330742597579956,
				1.4168363809585571
			],
			"translation":[
				-0.00043616132461465895,
				1.1736170053482056,
				-32.17731475830078
			]
		},
		{
			"mesh":1,
			"name":"Soccer Goal.001",
			"scale":[
				2.6388418674468994,
				1.0330742597579956,
				1.4168363809585571
			],
			"translation":[
				0.00044557751971296966,
				1.1736170053482056,
				32.171974182128906
			]
		},
		{
			"mesh":2,
			"name":"Soccer Field",
			"rotation":[
				0,
				1,
				0,
				1.6292068494294654e-07
			],
			"scale":[
				9.31112289428711,
				1,
				5.287704944610596
			],
			"translation":[
				-4.316378908697516e-05,
				0.0012372136116027832,
				0.00021565519273281097
			]
		}
	],
	"materials":[
		{
			"doubleSided":true,
			"name":"White",
			"pbrMetallicRoughness":{
				"baseColorFactor":[
					1,
					1,
					1,
					1
				],
				"metallicFactor":0,
				"roughnessFactor":0.5
			}
		},
		{
			"doubleSided":true,
			"name":"Net",
			"pbrMetallicRoughness":{
				"baseColorFactor":[
					0.800000011920929,
					0.800000011920929,
					0.800000011920929,
					1
				],
				"metallicFactor":0,
				"roughnessFactor":0.5
			}
		},
		{
			"doubleSided":true,
			"name":"Green",
			"pbrMetallicRoughness":{
				"baseColorFactor":[
					0.15952615439891815,
					0.4868970215320587,
					0.12733760476112366,
					1
				],
				"metallicFactor":0,
				"roughnessFactor":0.5
			}
		}
	],
	"meshes":[
		{
			"name":"Cube.006",
			"primitives":[
				{
					"attributes":{
						"POSITION":0,
						"NORMAL":1
					},
					"indices":2,
					"material":0
				},
				{
					"attributes":{
						"POSITION":3,
						"NORMAL":4
					},
					"indices":5,
					"material":1
				}
			]
		},
		{
			"name":"Cube.003",
			"primitives":[
				{
					"attributes":{
						"POSITION":6,
						"NORMAL":7
					},
					"indices":2,
					"material":0
				},
				{
					"attributes":{
						"POSITION":8,
						"NORMAL":9
					},
					"indices":5,
					"material":1
				}
			]
		},
		{
			"name":"Plane.002",
			"primitives":[
				{
					"attributes":{
						"POSITION":10,
						"NORMAL":11
					},
					"indices":12,
					"material":0
				},
				{
					"attributes":{
						"POSITION":13,
						"NORMAL":14
					},
					"indices":15,
					"material":2
				}
			]
		}
	],
	"accessors":[
		{
			"bufferView":0,
			"componentType":5126,
			"count":202,
			"max":[
				0.9998329281806946,
				0.9353548288345337,
				0.9175519347190857
			],
			"min":[
				-1.0001671314239502,
				-1.0646451711654663,
				-1.0824480056762695
			],
			"type":"VEC3"
		},
		{
			"bufferView":1,
			"componentType":5126,
			"count":202,
			"type":"VEC3"
		},
		{
			"bufferView":2,
			"componentType":5123,
			"count":480,
			"type":"SCALAR"
		},
		{
			"bufferView":3,
			"componentType":5126,
			"count":116,
			"max":[
				0.9488310813903809,
				0.8612901568412781,
				0.8363563418388367
			],
			"min":[
				-0.9511138200759888,
				-1.0646450519561768,
				-1.021855354309082
			],
			"type":"VEC3"
		},
		{
			"bufferView":4,
			"componentType":5126,
			"count":116,
			"type":"VEC3"
		},
		{
			"bufferView":5,
			"componentType":5123,
			"count":180,
			"type":"SCALAR"
		},
		{
			"bufferView":6,
			"componentType":5126,
			"count":202,
			"max":[
				0.9998329281806946,
				0.9353548288345337,
				0.9175519347190857
			],
			"min":[
				-1.0001671314239502,
				-1.0646451711654663,
				-1.0824480056762695
			],
			"type":"VEC3"
		},
		{
			"bufferView":7,
			"componentType":5126,
			"count":202,
			"type":"VEC3"
		},
		{
			"bufferView":8,
			"componentType":5126,
			"count":116,
			"max":[
				0.9488310813903809,
				0.8612901568412781,
				0.8363563418388367
			],
			"min":[
				-0.9511138200759888,
				-1.0646450519561768,
				-1.021855354309082
			],
			"type":"VEC3"
		},
		{
			"bufferView":9,
			"componentType":5126,
			"count":116,
			"type":"VEC3"
		},
		{
			"bufferView":10,
			"componentType":5126,
			"count":255,
			"max":[
				2.157992124557495,
				0.08108070492744446,
				6.48151969909668
			],
			"min":[
				-2.1580028533935547,
				0.07294496893882751,
				-6.48170804977417
			],
			"type":"VEC3"
		},
		{
			"bufferView":11,
			"componentType":5126,
			"count":255,
			"type":"VEC3"
		},
		{
			"bufferView":12,
			"componentType":5123,
			"count":711,
			"type":"SCALAR"
		},
		{
			"bufferView":13,
			"componentType":5126,
			"count":72,
			"max":[
				2.157992124557495,
				0.07295075058937073,
				6.48151969909668
			],
			"min":[
				-2.1580028533935547,
				-0.0754251480102539,
				-6.48170804977417
			],
			"type":"VEC3"
		},
		{
			"bufferView":14,
			"componentType":5126,
			"count":72,
			"type":"VEC3"
		},
		{
			"bufferView":15,
			"componentType":5123,
			"count":198,
			"type":"SCALAR"
		}
	],
	"bufferViews":[
		{
			"buffer":0,
			"byteLength":2424,
			"byteOffset":0,
			"target":34962
		},
		{
			"buffer":0,
			"byteLength":2424,
			"byteOffset":2424,
			"target":34962
		},
		{
			"buffer":0,
			"byteLength":960,
			"byteOffset":4848,
			"target":34963
		},
		{
			"buffer":0,
			"byteLength":1392,
			"byteOffset":5808,
			"target":34962
		},
		{
			"buffer":0,
			"byteLength":1392,
			"byteOffset":7200,
			"target":34962
		},
		{
			"buffer":0,
			"byteLength":360,
			"byteOffset":8592,
			"target":34963
		},
		{
			"buffer":0,
			"byteLength":2424,
			"byteOffset":8952,
			"target":34962
		},
		{
			"buffer":0,
			"byteLength":2424,
			"byteOffset":11376,
			"target":34962
		},
		{
			"buffer":0,
			"byteLength":1392,
			"byteOffset":13800,
			"target":34962
		},
		{
			"buffer":0,
			"byteLength":1392,
			"byteOffset":15192,
			"target":34962
		},
		{
			"buffer":0,
			"byteLength":3060,
			"byteOffset":16584,
			"target":34962
		},
		{
			"buffer":0,
			"byteLength":3060,
			"byteOffset":19644,
			"target":34962
		},
		{
			"buffer":0,
			"byteLength":1422,
			"byteOffset":22704,
			"target":34963
		},
		{
			"buffer":0,
			"byteLength":864,
			"byteOffset":24128,
			"target":34962
		},
		{
			"buffer":0,
			"byteLength":864,
			"byteOffset":24992,
			"target":34962
		},
		{
			"buffer":0,
			"byteLength":396,
			"byteOffset":25856,
			"target":34963
		}
	],
	"buffers":[
		{
			"byteLength":26252,
			"uri":"SoccerField.bin"
		}
	]
}
